<?xml version="1.0" standalone="no"?>
<!DOCTYPE svg PUBLIC "-//W3C//DTD SVG 20010904//EN"
 "http://www.w3.org/TR/2001/REC-SVG-20010904/DTD/svg10.dtd">
<svg version="1.0" xmlns="http://www.w3.org/2000/svg"
 width="248.000000pt" height="256.000000pt" viewBox="0 0 248.000000 256.000000"
 preserveAspectRatio="xMidYMid meet">

<g transform="translate(0.000000,256.000000) scale(0.100000,-0.100000)"
fill="#000000" stroke="none">
<path d="M1021 2544 c-515 -86 -924 -518 -1006 -1064 -46 -301 23 -645 181
-896 143 -227 345 -402 571 -493 335 -135 726 -116 1046 51 268 140 489 399
595 698 54 154 67 237 67 430 0 192 -13 275 -66 434 -128 384 -445 690 -828
802 -181 53 -388 67 -560 38z m365 -25 c477 -66 894 -445 1019 -927 110 -422
-18 -895 -325 -1203 -188 -188 -430 -306 -700 -339 -116 -14 -195 -13 -317 6
-439 65 -800 366 -951 794 -56 159 -67 235 -66 445 1 179 2 197 32 308 36 137
114 306 190 413 263 371 690 563 1118 503z"/>
<path d="M1354 2416 c-30 -30 -34 -40 -34 -85 0 -63 20 -105 60 -126 35 -18
115 -24 130 -9 6 6 13 33 16 60 7 59 -10 84 -56 84 -41 0 -58 -32 -28 -52 14
-10 19 -20 15 -31 -16 -42 -77 4 -77 59 0 26 8 43 29 65 36 36 60 37 96 3 22
-20 30 -23 36 -12 28 43 -20 78 -107 78 -39 0 -51 -5 -80 -34z"/>
<path d="M937 2428 c-12 -10 -19 -41 -27 -123 -5 -60 -10 -116 -10 -122 0 -8
13 -13 30 -13 24 0 31 5 36 28 10 39 23 52 54 52 18 0 33 -8 44 -25 14 -22 19
-23 41 -13 14 6 24 14 23 17 -2 3 -34 52 -72 109 -69 102 -85 115 -119 90z
m53 -125 c0 -7 -4 -13 -10 -13 -5 0 -10 12 -10 28 0 21 2 24 10 12 5 -8 10
-21 10 -27z"/>
<path d="M1685 2289 c-86 -76 -55 -212 52 -226 98 -13 177 89 139 180 -32 78
-128 101 -191 46z m131 -44 c21 -32 11 -78 -23 -105 -30 -24 -75 -26 -93 -5
-30 37 25 135 76 135 14 0 30 -10 40 -25z"/>
<path d="M591 2263 c-83 -43 -84 -47 -15 -147 32 -48 64 -92 71 -98 10 -8 24
-3 56 17 89 58 111 99 88 168 -28 84 -108 108 -200 60z m114 -49 c44 -47 23
-140 -25 -114 -44 24 -85 114 -59 131 26 16 60 9 84 -17z"/>
<path d="M2015 2109 c-4 -5 0 -18 9 -28 9 -10 16 -22 16 -28 0 -5 -31 -38 -70
-72 -61 -55 -69 -65 -59 -82 19 -37 38 -33 103 25 65 57 92 68 102 41 8 -19
54 -20 54 -1 0 8 -25 46 -56 85 -53 68 -83 86 -99 60z"/>
<path d="M342 2034 c-12 -8 -22 -24 -22 -35 0 -16 47 -107 107 -206 28 -48 75
-13 55 40 -18 46 5 77 58 77 30 0 42 5 51 21 6 12 7 25 2 29 -6 6 -218 90
-226 90 -2 0 -13 -7 -25 -16z m105 -89 c8 -22 -6 -33 -17 -15 -13 20 -12 30 0
30 6 0 13 -7 17 -15z"/>
<path d="M1144 1835 c-9 -13 -24 -79 -35 -146 -10 -67 -23 -127 -29 -133 -8
-8 -23 -4 -53 12 -46 24 -72 28 -83 11 -14 -23 -6 -88 16 -126 l22 -40 -32
-44 c-27 -38 -31 -50 -26 -86 4 -29 1 -45 -9 -53 -22 -18 -19 -39 11 -77 14
-19 23 -40 20 -48 -3 -8 -24 -19 -48 -25 -81 -22 -230 -83 -256 -105 -14 -12
-23 -28 -20 -36 6 -16 676 -229 720 -229 28 0 492 212 518 236 30 29 -3 46
-210 106 -112 32 -222 69 -244 81 -72 39 -59 91 31 127 71 28 95 48 91 74 -3
18 -12 22 -58 26 -67 7 -111 29 -142 72 -22 31 -23 43 -26 198 -1 91 -4 174
-7 186 -6 26 -44 44 -95 44 -31 0 -43 -5 -56 -25z m50 -61 c8 -20 8 -138 -1
-187 -5 -31 -9 -38 -27 -35 -24 3 -24 15 -5 156 11 79 20 99 33 66z m73 -130
c5 -15 -28 -27 -40 -15 -5 5 -6 14 -2 21 8 13 37 9 42 -6z m-11 -93 c-22 -21
-46 0 -26 24 10 12 16 13 27 3 12 -10 12 -13 -1 -27z m-71 -71 c65 -10 95 -34
95 -76 0 -28 -7 -30 -36 -9 -12 8 -53 23 -91 34 -165 45 -143 80 32 51z m14
-99 c36 -33 39 -56 12 -71 -27 -14 -28 -14 -35 18 -4 15 -21 39 -39 54 l-32
27 31 1 c22 0 42 -9 63 -29z m-59 -34 c0 -21 -12 -28 -27 -16 -19 16 -16 29 7
29 11 0 20 -6 20 -13z m268 -29 c-2 -6 -26 -17 -54 -23 -64 -15 -88 -28 -114
-65 -23 -32 -54 -40 -64 -15 -13 34 24 64 123 100 47 18 114 19 109 3z m-390
-27 c2 -13 -2 -27 -9 -31 -26 -17 -55 14 -42 46 9 24 47 13 51 -15z m87 -61
c0 -18 -6 -26 -23 -28 -24 -4 -38 18 -28 44 3 9 15 14 28 12 17 -2 23 -10 23
-28z m219 2 c2 -4 -2 -22 -10 -40 -15 -36 -46 -41 -52 -9 -6 32 46 74 62 49z
m-127 -78 c3 -9 2 -24 -4 -33 -15 -23 -110 -22 -148 3 -27 18 -28 19 -10 32
28 21 154 19 162 -2z m63 -47 c0 -17 -20 -37 -37 -37 -19 0 -16 27 5 39 23 14
32 13 32 -2z m325 -58 c99 -28 185 -56 192 -61 6 -5 9 -16 6 -24 -7 -19 -415
-224 -444 -224 -12 0 -147 41 -300 90 -230 75 -279 94 -279 109 0 14 34 32
150 80 154 63 170 68 170 52 0 -17 -49 -49 -87 -56 -41 -7 -153 -63 -153 -75
0 -8 66 -33 276 -106 l111 -38 134 37 c131 37 296 112 292 132 -1 10 -31 21
-195 70 -72 21 -88 29 -88 45 0 12 7 20 17 20 10 0 99 -23 198 -51z m-251 9
c32 -45 12 -118 -32 -118 -10 0 -28 7 -40 16 -41 28 -25 98 28 117 25 9 28 8
44 -15z m-244 -73 c0 -8 14 -31 32 -51 l32 -36 -24 -20 c-19 -15 -26 -17 -35
-6 -14 14 -34 107 -27 126 5 16 22 5 22 -13z m342 8 c17 -15 19 -15 39 3 20
18 21 18 65 -5 35 -19 42 -27 33 -37 -14 -17 -184 -20 -194 -4 -7 11 20 60 32
60 4 0 15 -7 25 -17z m-212 -44 c0 -26 3 -29 34 -29 38 0 83 -30 72 -48 -9
-15 -49 -15 -64 0 -9 9 -17 7 -34 -9 -13 -11 -29 -18 -35 -16 -16 6 -17 96 -2
124 14 26 29 15 29 -22z m-190 17 c15 -20 9 -61 -10 -61 -10 0 -16 12 -18 38
-3 39 7 47 28 23z m-73 -34 c-13 -13 -19 -13 -32 -2 -23 19 0 44 27 29 18 -10
19 -12 5 -27z"/>
<path d="M186 1761 c-57 -63 -36 -185 36 -210 94 -33 175 12 185 103 5 40 3
52 -12 63 -35 25 -47 17 -40 -26 5 -32 3 -43 -14 -60 -30 -30 -82 -28 -115 5
-32 33 -33 54 -1 92 18 22 21 32 13 40 -17 17 -32 15 -52 -7z"/>
<path d="M2120 1773 c-74 -4 -100 -11 -100 -26 0 -22 18 -40 42 -43 12 -1 26
-3 31 -3 4 -1 12 -13 18 -27 7 -20 6 -32 -6 -50 -19 -30 -19 -49 2 -69 15 -15
22 -10 105 71 87 88 102 116 76 142 -11 11 -43 12 -168 5z m80 -56 c0 -2 -9
-12 -20 -22 -17 -16 -20 -16 -20 -2 0 8 8 18 18 20 9 3 18 5 20 6 1 0 2 -1 2
-2z"/>
<path d="M287 847 c-77 -45 -88 -55 -85 -77 3 -26 14 -29 55 -16 17 5 31 -1
61 -29 42 -37 76 -44 115 -24 46 25 49 64 10 144 -20 41 -32 55 -48 54 -11 0
-60 -24 -108 -52z m128 -48 c8 -26 -11 -49 -41 -49 -34 0 -43 38 -15 61 25 21
48 16 56 -12z"/>
<path d="M2040 864 c-6 -14 -10 -28 -10 -32 0 -4 40 -47 89 -96 77 -77 92 -88
105 -76 20 16 20 39 1 60 -14 15 -14 21 0 53 12 29 21 36 47 39 28 2 33 7 33
28 0 24 -4 25 -90 37 -146 18 -164 17 -175 -13z m124 -50 c17 -6 22 -24 8 -24
-5 0 -17 7 -28 15 -19 15 -8 20 20 9z"/>
<path d="M1918 675 c-32 -41 -58 -81 -58 -88 0 -24 27 -27 46 -6 26 29 43 24
114 -36 35 -30 69 -54 74 -52 5 2 15 12 23 24 13 19 9 24 -56 79 -73 61 -81
76 -56 108 11 14 12 23 4 33 -20 23 -33 14 -91 -62z"/>
<path d="M435 620 c-55 -28 -103 -54 -107 -58 -5 -5 -2 -17 6 -28 13 -17 18
-18 48 -6 31 12 34 11 61 -18 26 -29 26 -32 12 -59 -13 -26 -13 -30 4 -45 10
-9 21 -16 24 -16 9 0 117 216 117 233 0 18 -32 47 -51 47 -8 0 -59 -23 -114
-50z m70 -59 c-15 -30 -35 -34 -35 -7 0 13 41 47 48 41 2 -2 -4 -17 -13 -34z"/>
<path d="M1760 532 c-64 -32 -88 -117 -50 -180 65 -106 213 -86 235 32 14 72
-56 166 -125 166 -14 0 -41 -8 -60 -18z m75 -54 c33 -25 58 -82 50 -109 -15
-45 -77 -43 -109 5 -26 41 -29 83 -7 105 26 26 32 26 66 -1z"/>
<path d="M629 479 c-72 -77 -56 -185 34 -230 50 -26 79 -19 106 25 29 47 26
67 -15 95 -32 22 -36 23 -51 8 -15 -14 -15 -18 0 -40 17 -27 13 -37 -14 -37
-43 0 -53 87 -14 125 37 38 76 33 112 -12 33 -40 63 -41 63 0 0 45 -84 97
-156 97 -27 0 -43 -7 -65 -31z"/>
<path d="M1592 428 c-17 -17 -15 -39 9 -124 23 -78 18 -104 -21 -104 -26 0
-36 17 -60 108 -23 86 -40 101 -74 67 -13 -14 -13 -21 1 -68 39 -133 58 -157
123 -157 99 0 127 59 91 193 -25 92 -41 113 -69 85z"/>
<path d="M944 392 c-7 -4 -39 -50 -72 -102 -46 -70 -58 -97 -50 -107 16 -20
37 -16 61 12 20 24 25 25 55 14 27 -9 32 -16 32 -44 0 -31 16 -44 54 -45 4 0
7 59 4 131 -3 100 -7 132 -18 139 -18 12 -51 12 -66 2z m26 -127 c0 -18 -4
-23 -15 -19 -17 7 -17 7 -9 28 9 24 24 19 24 -9z"/>
<path d="M1255 348 c-30 -24 -55 -74 -55 -112 0 -45 31 -106 61 -121 32 -17
86 -19 123 -5 20 7 26 16 26 40 0 36 -2 36 -39 9 -36 -26 -65 -19 -86 21 -23
44 -19 87 10 115 28 28 40 30 75 10 34 -19 40 -18 40 5 0 57 -99 82 -155 38z"/>
</g>
</svg>
